<svg width="64" height="64" viewBox="0 0 64 64" fill="none" xmlns="http://www.w3.org/2000/svg">
<rect width="64" height="64" rx="12" fill="#66876C"/>
<path d="M17.2473 47V16.9H31.4803C34.8056 16.9 37.7296 17.5163 40.2523 18.749C42.775 19.9817 44.7386 21.716 46.1433 23.952C47.5766 26.188 48.2933 28.854 48.2933 31.95C48.2933 35.0173 47.5766 37.6833 46.1433 39.948C44.7386 42.184 42.775 43.9183 40.2523 45.151C37.7296 46.3837 34.8056 47 31.4803 47H17.2473ZM25.7613 40.206H31.1363C32.8563 40.206 34.347 39.8907 35.6083 39.26C36.8983 38.6007 37.9016 37.6547 38.6183 36.422C39.335 35.1607 39.6933 33.67 39.6933 31.95C39.6933 30.2013 39.335 28.7107 38.6183 27.478C37.9016 26.2453 36.8983 25.3137 35.6083 24.683C34.347 24.0237 32.8563 23.694 31.1363 23.694H25.7613V40.206Z" fill="white"/>
</svg>
